<?xml version="1.0" encoding="UTF-8" standalone="no"?>
<!DOCTYPE svg PUBLIC "-//W3C//DTD SVG 1.1//EN" "http://www.w3.org/Graphics/SVG/1.1/DTD/svg11.dtd">
<svg width="100%" height="100%" viewBox="0 0 382 335" version="1.1" xmlns="http://www.w3.org/2000/svg" xmlns:xlink="http://www.w3.org/1999/xlink" xml:space="preserve" xmlns:serif="http://www.serif.com/" style="fill-rule:evenodd;clip-rule:evenodd;stroke-linejoin:round;stroke-miterlimit:2;">
    <g transform="matrix(1,0,0,1,-137.277,-160.699)">
        <g>
            <g transform="matrix(0.47254,0,0,0.47254,-72.2276,40.0056)">
                <path d="M660.799,366.806C662.337,369.881 663.362,370.906 663.874,372.956C665.412,378.081 666.437,382.693 667.462,387.818C679.249,447.268 682.836,506.204 679.761,566.166C679.761,572.316 679.761,576.416 678.736,582.053C674.637,606.653 669.512,609.215 647.474,604.09C642.862,603.578 637.737,601.015 633.125,598.965C616.725,590.766 599.813,583.591 583.925,573.853C556.251,555.916 528.576,537.979 501.414,519.529C485.014,507.742 469.127,506.717 456.315,516.454C443.502,526.704 439.402,545.154 447.602,563.603C452.215,575.391 459.902,586.153 468.102,595.89C495.264,626.64 527.039,652.777 561.888,675.327C587.513,691.727 614.675,705.051 644.399,710.176C704.874,721.451 748.436,693.264 769.96,641.502C775.598,628.69 778.16,615.365 780.723,601.015C786.872,569.241 783.798,535.416 780.723,503.129C774.573,447.78 766.373,393.456 745.873,342.206C745.361,339.644 744.848,338.107 745.361,338.619C755.098,325.807 764.835,315.557 770.985,304.282C779.698,290.445 776.11,274.557 766.373,263.795C757.148,255.083 744.336,252.52 729.986,259.183C722.298,261.233 715.636,264.308 707.949,266.87C685.399,272.507 661.824,273.532 638.25,272.507C623.387,271.995 608.525,271.482 594.175,274.045C582.388,274.557 570.088,278.657 559.838,284.807C543.951,293.52 537.288,311.969 541.901,327.857C545.488,341.694 554.713,350.919 567.013,356.556C590.588,366.294 614.675,369.881 640.299,368.344C647.474,367.831 653.624,367.831 660.799,366.806Z" style="fill:rgb(31,36,33);fill-rule:nonzero;"/>
                <g transform="matrix(1.6388,0,0,1.6388,-525.4,-179.392)">
                    <path d="M948.82,584.616C955.483,582.566 960.608,581.028 966.245,580.003C986.232,574.366 1004.68,570.266 1024.16,565.653C1041.58,561.041 1052.86,548.741 1053.88,531.829C1054.39,515.429 1044.14,501.592 1026.21,494.929C1023.64,494.929 1021.08,493.392 1019.03,492.879C1005.19,492.367 992.895,491.854 980.595,491.854C965.733,491.854 950.87,494.417 936.008,494.929C930.37,463.155 924.733,430.868 923.196,398.581C942.67,402.681 959.583,407.293 977.007,409.856C1004.68,414.468 1032.36,412.418 1057.47,397.043C1075.92,385.768 1085.66,369.881 1082.58,346.306C1079.51,324.269 1065.67,310.944 1045.17,305.307C1034.41,302.232 1023.13,301.207 1012.37,302.232C988.282,303.257 965.22,299.67 942.158,293.52C927.296,288.395 911.921,284.807 897.058,281.732C866.821,276.607 839.147,293.52 828.897,324.269C824.797,338.107 823.259,352.456 822.747,367.319C821.209,417.03 826.334,467.255 833.509,516.454C839.147,558.991 849.397,601.015 866.821,640.99C872.971,654.315 880.659,667.127 889.371,676.352C912.433,698.389 944.208,686.089 948.82,654.827C950.87,643.04 950.87,630.228 950.87,618.953C950.87,607.165 949.333,596.403 948.82,584.616Z" style="fill:rgb(31,36,33);fill-rule:nonzero;"/>
                </g>
            </g>
            <g transform="matrix(1,0,0,1,-718.704,-564.951)">
                <circle cx="1003.24" cy="1016.57" r="43.243" style="fill:rgb(255,50,124);"/>
            </g>
        </g>
    </g>
</svg>
